:FULLY-SPECIFIED
:DEGREES
167
root -2.95323 15.968 -36.7652 6.94745 14.8137 -3.64458
lfemur -42.7732 9.07363 -13.046
ltibia 60.1091
lfoot -21.7422 2.77249
ltoes -9.84525
rfemur -30.9049 -14.656 16.9877
rtibia 57.5581
rfoot -26.5847 -8.55646
rtoes -20.5108
lowerback 12.4529 1.97209 3.08712
upperback -3.05324 3.35955 2.08517
thorax -10.2642 1.49596 -0.198381
lowerneck -3.85205 10.1217 4.21789
upperneck 3.29038 13.6212 -6.68828
head 2.55085 6.69832 -2.33984
lclavicle -8.34896e-15 -1.70955e-14
lhumerus -21.2994 -50.1299 102.024
lradius 73.0008
lwrist 14.6474
lhand -8.45579 33.007
lfingers 7.12502
lthumb 17.4702 62.242
rclavicle -8.34896e-15 -1.70955e-14
rhumerus -33.1419 19.9834 -78.0969
rradius 46.1404
rwrist 3.04409
rhand -10.5364 -36.3249
rfingers 7.12502
rthumb 15.4671 -65.7261
168
root -2.96096 15.9316 -36.8256 7.26586 15.9828 -3.61069
lfemur -44.1445 9.68555 -13.7356
ltibia 61.4904
lfoot -21.5631 3.53358
ltoes -11.6522
rfemur -31.6731 -15.2942 17.1772
rtibia 58.216
rfoot -26.1704 -9.91313
rtoes -21.7845
lowerback 12.774 1.92609 3.15612
upperback -3.03864 3.33443 2.17651
thorax -10.44 1.47938 -0.14528
lowerneck -3.9586 10.114 4.02534
upperneck 3.25704 13.6144 -6.6466
head 2.53867 6.69214 -2.29007
lclavicle 9.25343e-14 1.98785e-14
lhumerus -18.5429 -53.751 101.162
lradius 78.2456
lwrist 16.3066
lhand -11.7447 33.5489
lfingers 7.12502
lthumb 14.303 63.0363
rclavicle 9.25343e-14 1.98785e-14
rhumerus -32.8435 23.3441 -78.5417
rradius 47.3691
rwrist 2.69916
rhand -10.3453 -36.8459
rfingers 7.12502
rthumb 15.6511 -66.2328
169
root -2.9656 15.9016 -36.8809 7.41732 17.0354 -3.56497
lfemur -45.1533 10.4423 -14.4344
ltibia 63.1313
lfoot -21.2403 5.37362
ltoes -13.2082
rfemur -32.1855 -15.8845 17.2644
rtibia 58.8296
rfoot -26.0939 -10.5564
rtoes -21.3273
lowerback 13.205 1.89526 3.20478
upperback -3.04583 3.32886 2.22307
thorax -10.7027 1.46963 -0.137031
lowerneck -3.82893 10.071 3.91616
upperneck 3.22906 13.5564 -6.51358
head 2.4815 6.66811 -2.24003
lclavicle -2.42517e-14 -1.59028e-14
lhumerus -15.0471 -57.3188 99.4793
lradius 83.2622
lwrist 16.6866
lhand -15.6155 35.2307
lfingers 7.12502
lthumb 10.5711 64.9449
rclavicle -2.42517e-14 -1.59028e-14
rhumerus -32.892 27.035 -79.2515
rradius 48.7185
rwrist 2.72005
rhand -9.62786 -36.4368
rfingers 7.12502
rthumb 16.342 -65.7683
170
root -2.95981 15.8739 -36.9337 7.66096 17.9547 -3.3908
lfemur -46.0595 11.2412 -15.2908
ltibia 65.0018
lfoot -20.6508 8.10392
ltoes -14.2836
rfemur -32.7785 -16.5588 17.1769
rtibia 59.4212
rfoot -25.9269 -11.1035
rtoes -21.4909
lowerback 13.5286 1.86684 3.30528
upperback -3.08068 3.31653 2.1283
thorax -10.9212 1.44816 -0.305551
lowerneck -3.77108 10.0012 3.81016
upperneck 3.32121 13.4604 -6.27125
head 2.46634 6.62409 -2.15097
lclavicle 9.44227e-15 6.36111e-15
lhumerus -10.9049 -60.4021 96.9412
lradius 88.0929
lwrist 15.3399
lhand -18.7748 36.9968
lfingers 7.12502
lthumb 7.5225 66.8431
rclavicle 9.44227e-15 6.36111e-15
rhumerus -33.0757 30.7759 -80.1426
rradius 50.2868
rwrist 3.11872
rhand -9.62706 -35.8166
rfingers 7.12502
rthumb 16.3428 -65.148
171
root -2.95448 15.8447 -36.9823 7.71311 18.6104 -3.53485
lfemur -46.6927 12.3071 -15.6782
ltibia 67.0876
lfoot -19.8825 10.5878
ltoes -14.1496
rfemur -33.2342 -16.7504 17.3965
rtibia 59.9243
rfoot -25.7822 -11.8017
rtoes -21.1429
lowerback 14.1504 1.88835 3.62161
upperback -3.23521 3.43899 2.08425
thorax -11.44 1.46973 -0.584253
lowerneck -3.62 9.92591 3.84162
upperneck 3.43059 13.3614 -6.17481
head 2.46447 6.57866 -2.13596
lclavicle -4.74101e-14 -3.18055e-15
lhumerus -6.87391 -62.8814 94.048
lradius 92.7479
lwrist 12.5982
lhand -21.5379 38.3913
lfingers 7.12502
lthumb 4.85494 68.3157
rclavicle -4.74101e-14 -3.18055e-15
rhumerus -33.2626 34.7348 -81.29
rradius 51.5864
rwrist 3.37008
rhand -10.67 -35.0197
rfingers 7.12502
rthumb 15.3383 -64.4309
172
root -2.9422 15.8171 -37.0278 7.84326 18.9483 -3.59841
lfemur -47.1798 13.6543 -16.152
ltibia 69.2771
lfoot -18.8466 13.3886
ltoes -13.8375
rfemur -33.7771 -16.8872 17.4946
rtibia 60.3845
rfoot -25.5281 -12.3213
rtoes -21.5032
lowerback 14.4781 1.95431 3.85148
upperback -3.28607 3.58342 2.0137
thorax -11.6694 1.51222 -0.837877
lowerneck -3.54203 9.92743 3.70459
upperneck 3.51316 13.3684 -6.03512
head 2.45506 6.58372 -2.07061
lclavicle -5.68524e-14 -1.27222e-14
lhumerus -2.25756 -64.6759 90.4014
lradius 97.2581
lwrist 9.47121
lhand -22.5787 40.2269
lfingers 7.12502
lthumb 3.84991 70.1719
rclavicle -5.68524e-14 -1.27222e-14
rhumerus -33.3405 38.5747 -82.2667
rradius 53.2983
rwrist 4.2392
rhand -9.8887 -34.5155
rfingers 7.12502
rthumb 16.0908 -63.8675
173
root -2.92429 15.7945 -37.0668 7.8541 19.2881 -3.58827
lfemur -47.2708 14.8151 -16.5298
ltibia 71.4611
lfoot -17.9992 15.8231
ltoes -13.2523
rfemur -34.0704 -17.1637 17.4706
rtibia 60.7876
rfoot -25.4125 -12.7277
rtoes -21.5381
lowerback 14.8108 2.02379 4.01588
upperback -3.28322 3.71748 1.93211
thorax -11.8431 1.5547 -1.06535
lowerneck -3.53572 9.89905 3.72588
upperneck 3.67212 13.3435 -6.12921
head 2.51596 6.56758 -2.10222
lclavicle -2.50469e-14 -1.98785e-14
lhumerus 2.14073 -66.0279 86.6028
lradius 101.853
lwrist 6.78238
lhand -22.9387 40.8788
lfingers 7.12502
lthumb 3.5023 70.8298
rclavicle -2.50469e-14 -1.98785e-14
rhumerus -33.5689 42.1751 -83.209
rradius 55.3139
rwrist 4.45819
rhand -9.45449 -33.929
rfingers 7.12502
rthumb 16.5089 -63.2467
174
root -2.90146 15.7725 -37.1008 7.91996 19.3744 -3.50426
lfemur -47.1778 16.2619 -16.904
ltibia 73.6037
lfoot -17.7922 17.4674
ltoes -11.8835
rfemur -34.384 -17.3129 17.3133
rtibia 61.1492
rfoot -25.3893 -12.7861
rtoes -21.425
lowerback 15.0638 2.1764 4.0754
upperback -3.314 3.93701 1.82368
thorax -12.0071 1.6432 -1.28285
lowerneck -3.37673 9.8934 3.81212
upperneck 3.78203 13.3535 -6.32292
head 2.54885 6.57109 -2.18394
lclavicle 5.58585e-14 -2.38542e-15
lhumerus 5.92411 -66.9361 83.0556
lradius 106.581
lwrist 5.44788
lhand -23.8147 40.3429
lfingers 7.12502
lthumb 2.65634 70.3061
rclavicle 5.58585e-14 -2.38542e-15
rhumerus -33.8995 45.4263 -84.1135
rradius 57.5702
rwrist 4.81032
rhand -7.95112 -33.4078
rfingers 7.12502
rthumb 17.9559 -62.5989
175
root -2.87298 15.7555 -37.1243 8.0648 19.4001 -3.3377
lfemur -46.8873 17.7831 -17.2748
ltibia 75.5905
lfoot -17.9642 18.5481
ltoes -10.0871
rfemur -34.6877 -17.5564 17.0619
rtibia 61.4533
rfoot -25.3062 -12.823
rtoes -21.7571
lowerback 15.0963 2.23388 3.95351
upperback -3.23873 3.98698 1.81738
thorax -11.9455 1.67736 -1.23373
lowerneck -3.55231 10.0895 3.62494
upperneck 3.94045 13.6464 -6.5449
head 2.65477 6.70347 -2.19589
lclavicle 6.54002e-14 -2.38542e-14
lhumerus 9.03911 -66.9478 79.7674
lradius 111.303
lwrist 4.55816
lhand -23.9281 39.9988
lfingers 7.12502
lthumb 2.54676 69.9634
rclavicle 6.54002e-14 -2.38542e-14
rhumerus -34.1545 48.659 -84.9143
rradius 60.1446
rwrist 4.25812
rhand -6.69251 -32.5593
rfingers 7.12502
rthumb 19.1665 -61.6349
